<?xml version="1.0" encoding="UTF-8" standalone="no"?>
<svg
   xmlns:dc="http://purl.org/dc/elements/1.1/"
   xmlns:cc="http://creativecommons.org/ns#"
   xmlns:rdf="http://www.w3.org/1999/02/22-rdf-syntax-ns#"
   xmlns:svg="http://www.w3.org/2000/svg"
   xmlns="http://www.w3.org/2000/svg"
   xmlns:sodipodi="http://sodipodi.sourceforge.net/DTD/sodipodi-0.dtd"
   xmlns:inkscape="http://www.inkscape.org/namespaces/inkscape"
   viewBox="0 0 8.6450006 8.6450006"
   version="1.1"
   x="0px"
   y="0px"
   id="svg10"
   sodipodi:docname="symbol_outside.svg"
   inkscape:version="1.0 (4035a4fb49, 2020-05-01)"
   width="8.6450005"
   height="8.6450005">
  <metadata
     id="metadata16">
    <rdf:RDF>
      <cc:Work
         rdf:about="">
        <dc:format>image/svg+xml</dc:format>
        <dc:type
           rdf:resource="http://purl.org/dc/dcmitype/StillImage" />
        <dc:title />
      </cc:Work>
    </rdf:RDF>
  </metadata>
  <defs
     id="defs14" />
  <sodipodi:namedview
     inkscape:document-rotation="0"
     pagecolor="#ffffff"
     bordercolor="#666666"
     borderopacity="1"
     objecttolerance="10"
     gridtolerance="10"
     guidetolerance="10"
     inkscape:pageopacity="0"
     inkscape:pageshadow="2"
     inkscape:window-width="1920"
     inkscape:window-height="1001"
     id="namedview12"
     showgrid="false"
     inkscape:zoom="90.509668"
     inkscape:cx="3.2403279"
     inkscape:cy="2.5117128"
     inkscape:window-x="-9"
     inkscape:window-y="41"
     inkscape:window-maximized="1"
     inkscape:current-layer="svg10"
     inkscape:snap-object-midpoints="false" />
  <g
     id="g284"
     transform="translate(-2.0275016,-6.1018524)">
    <path
       sodipodi:nodetypes="csssssscccsccsscsssscccscssscssscsccccccc"
       d="m 4.2742665,8.68116 c -0.036486,0 -0.066146,0.0297 -0.066146,0.0661 v 3.35691 c 0,0.0365 0.02966,0.0661 0.066146,0.0661 h 4.1320508 c 0.036486,0 0.066146,-0.0299 0.066146,-0.0661 V 8.74726 c 0,-0.0365 -0.032527,-0.080277 -0.066146,-0.0661 z m -0.4243652,10e-6 c -0.036512,0 -0.066146,0.0297 -0.066146,0.0661 v 1.6123 H 2.0934116 c -0.03649,5e-5 -0.06615,0.0297 -0.06615,0.0662 0,0.0365 0.02966,0.0661 0.06615,0.0661 h 1.6903439 v 1.61231 c 0,0.0365 0.029633,0.0661 0.066146,0.0661 0.036486,0 0.066146,-0.0299 0.066146,-0.0661 v -3.3569 c 0,-0.0365 -0.02966,-0.0661 -0.066146,-0.0661 z m 4.9945131,0 c -0.036486,0 -0.066146,0.0297 -0.066146,0.0661 v 1.67845 1.67845 c 0,0.0365 0.02966,0.0661 0.066146,0.0661 0.036221,0 0.066146,-0.0299 0.066146,-0.0661 v -1.61231 h 1.6960316 c 0.03651,0 0.06615,-0.0296 0.06615,-0.0661 0,-0.0365 -0.02963,-0.0661 -0.06615,-0.0661 H 8.9105604 v -1.6123 c 0,-0.0365 -0.029633,-0.0661 -0.066146,-0.0661 z M 4.3403065,8.81346 8.3399298,8.81268 v 3.22461 H 4.3401742 Z"
       fill="#000000"
       stroke-width="0.264561"
       id="path2" />
  </g>
</svg>
