<?xml version="1.0" encoding="UTF-8" standalone="no"?>
<svg
   xmlns:dc="http://purl.org/dc/elements/1.1/"
   xmlns:cc="http://creativecommons.org/ns#"
   xmlns:rdf="http://www.w3.org/1999/02/22-rdf-syntax-ns#"
   xmlns:svg="http://www.w3.org/2000/svg"
   xmlns="http://www.w3.org/2000/svg"
   xmlns:sodipodi="http://sodipodi.sourceforge.net/DTD/sodipodi-0.dtd"
   xmlns:inkscape="http://www.inkscape.org/namespaces/inkscape"
   height="8.6450005"
   width="8.6450005"
   inkscape:version="1.0 (4035a4fb49, 2020-05-01)"
   sodipodi:docname="symbol_inside_red.svg"
   id="svg10"
   y="0px"
   x="0px"
   version="1.1"
   viewBox="0 0 8.6450006 8.6450006">
  <metadata
     id="metadata16">
    <rdf:RDF>
      <cc:Work
         rdf:about="">
        <dc:format>image/svg+xml</dc:format>
        <dc:type
           rdf:resource="http://purl.org/dc/dcmitype/StillImage" />
        <dc:title />
      </cc:Work>
    </rdf:RDF>
  </metadata>
  <defs
     id="defs14" />
  <sodipodi:namedview
     inkscape:snap-object-midpoints="false"
     inkscape:current-layer="g284"
     inkscape:window-maximized="1"
     inkscape:window-y="41"
     inkscape:window-x="-9"
     inkscape:cy="2.9104557"
     inkscape:cx="3.2228163"
     inkscape:zoom="90.509668"
     showgrid="false"
     id="namedview12"
     inkscape:window-height="1001"
     inkscape:window-width="1920"
     inkscape:pageshadow="2"
     inkscape:pageopacity="0"
     guidetolerance="10"
     gridtolerance="10"
     objecttolerance="10"
     borderopacity="1"
     bordercolor="#666666"
     pagecolor="#ffffff"
     inkscape:document-rotation="0"
     inkscape:snap-page="false" />
  <g
     transform="translate(-2.0275016,-6.1018524)"
     id="g284">
    <path
       style="fill:#d40000"
       id="path2"
       stroke-width="0.264561"
       fill="#000000"
       d="m 7.5256854,8.8248924 c -0.010054,0.003 -0.020638,0.005 -0.028416,0.0134 l -0.9684279,1.00924 c -0.066516,-0.024 -0.13716,-0.0393 -0.2118784,-0.0393 -0.3468423,0 -0.6288881,0.2820606 -0.6288881,0.6289006 0,0.085 0.017462,0.16577 0.048048,0.23978 l -0.9301692,0.96996 c -0.025929,0.0259 -0.025665,0.0673 0,0.093 l 0.265086,0.26562 c 0.012435,0.0123 0.029025,0.0191 0.046514,0.0191 l 0.0037,-0.002 c 0.017727,-2.6e-4 0.035137,-0.008 0.047546,-0.0207 l 0.9353285,-0.97617 c 0.066834,0.0242 0.137795,0.0398 0.2129102,0.0398 0.3468423,0 0.6289146,-0.28206 0.6289146,-0.6289 0,-0.0854 -0.017727,-0.16652 -0.048578,-0.24082 L 7.894722,9.1565924 c 0.012965,-0.0135 0.021167,-0.0315 0.017992,-0.0506 -0.00265,-0.019 -0.011113,-0.0361 -0.026458,-0.0475 l -0.3018102,-0.22738 c -0.00661,-0.005 -0.014552,-0.005 -0.022225,-0.007 z m 0.027384,0.14676 0.1953419,0.1478 -0.9177867,0.9565306 C 6.783503,10.009183 6.7233629,9.9527124 6.6544125,9.9085524 Z m -1.2361065,0.96894 c 0.2738173,0 0.496623,0.2227806 0.496623,0.4966106 0,0.27382 -0.2228057,0.49661 -0.496623,0.49661 -0.2738173,0 -0.4965964,-0.22279 -0.4965964,-0.49661 0,-0.27383 0.2227791,-0.4966106 0.4965964,-0.4966106 z m 0,0.2428806 c -0.1396735,0 -0.2537354,0.11404 -0.2537354,0.25373 0,0.13969 0.1140619,0.25373 0.2537354,0.25373 0.1397,0 0.2537355,-0.11404 0.2537355,-0.25373 0,-0.13969 -0.1140355,-0.25373 -0.2537355,-0.25373 z m 0,0.13229 c 0.06694,0 0.1214438,0.0545 0.1214438,0.12144 0,0.0669 -0.054531,0.12143 -0.1214438,0.12143 -0.06694,0 -0.1214437,-0.0545 -0.1214437,-0.12143 0,-0.0669 0.054557,-0.12144 0.1214437,-0.12144 z M 5.80383,10.798413 c 0.04699,0.0666 0.1064684,0.12336 0.1751806,0.16744 l -0.860425,0.8971 -0.1715558,-0.17208 z"
       sodipodi:nodetypes="cccssccccccccssccccccccccccsssssssssssssssccccc" />
  </g>
</svg>
