<?xml version="1.0" encoding="UTF-8" standalone="no"?>
<svg
   xmlns:dc="http://purl.org/dc/elements/1.1/"
   xmlns:cc="http://creativecommons.org/ns#"
   xmlns:rdf="http://www.w3.org/1999/02/22-rdf-syntax-ns#"
   xmlns:svg="http://www.w3.org/2000/svg"
   xmlns="http://www.w3.org/2000/svg"
   xmlns:sodipodi="http://sodipodi.sourceforge.net/DTD/sodipodi-0.dtd"
   xmlns:inkscape="http://www.inkscape.org/namespaces/inkscape"
   inkscape:version="1.0 (4035a4fb49, 2020-05-01)"
   sodipodi:docname="rotate_right.svg"
   xml:space="preserve"
   style="enable-background:new 0 0 486.805 486.805;"
   viewBox="0 0 486.805 486.805"
   height="486.805px"
   width="486.805px"
   y="0px"
   x="0px"
   id="Capa_1"
   version="1.1"><metadata
   id="metadata41"><rdf:RDF><cc:Work
       rdf:about=""><dc:format>image/svg+xml</dc:format><dc:type
         rdf:resource="http://purl.org/dc/dcmitype/StillImage" /></cc:Work></rdf:RDF></metadata><defs
   id="defs39" /><sodipodi:namedview
   inkscape:current-layer="Capa_1"
   inkscape:window-maximized="1"
   inkscape:window-y="41"
   inkscape:window-x="-9"
   inkscape:cy="243.4025"
   inkscape:cx="243.4025"
   inkscape:zoom="1.7049948"
   showgrid="false"
   id="namedview37"
   inkscape:window-height="1001"
   inkscape:window-width="1920"
   inkscape:pageshadow="2"
   inkscape:pageopacity="0"
   guidetolerance="10"
   gridtolerance="10"
   objecttolerance="10"
   borderopacity="1"
   bordercolor="#666666"
   pagecolor="#ffffff" />
<g
   transform="matrix(-1,0,0,1,486.804,0)"
   id="g4">
	<path
   id="path2"
   d="m 261.397,17.983 c -88.909,0 -167.372,51.302 -203.909,129.073 L 32.072,94.282 0,109.73 52.783,219.295 162.348,166.509 146.897,134.443 89.82,161.934 C 120.653,96.626 186.638,53.581 261.397,53.581 c 104.668,0 189.818,85.154 189.818,189.821 0,104.667 -85.15,189.824 -189.818,189.824 -61.631,0 -119.663,-30.109 -155.228,-80.539 l -29.096,20.521 c 42.241,59.87 111.143,95.613 184.324,95.613 124.286,0 225.407,-101.122 225.407,-225.419 0,-124.297 -101.12,-225.419 -225.407,-225.419 z" />
</g>
<g
   id="g6">
</g>
<g
   id="g8">
</g>
<g
   id="g10">
</g>
<g
   id="g12">
</g>
<g
   id="g14">
</g>
<g
   id="g16">
</g>
<g
   id="g18">
</g>
<g
   id="g20">
</g>
<g
   id="g22">
</g>
<g
   id="g24">
</g>
<g
   id="g26">
</g>
<g
   id="g28">
</g>
<g
   id="g30">
</g>
<g
   id="g32">
</g>
<g
   id="g34">
</g>
</svg>
