<?xml version="1.0" encoding="utf-8"?>
<!-- Svg Vector Icons : http://www.onlinewebfonts.com/icon -->
<!DOCTYPE svg PUBLIC "-//W3C//DTD SVG 1.1//EN" "http://www.w3.org/Graphics/SVG/1.1/DTD/svg11.dtd">
<svg version="1.1" xmlns="http://www.w3.org/2000/svg" xmlns:xlink="http://www.w3.org/1999/xlink" x="0px" y="0px" viewBox="0 0 1000 1000" enable-background="new 0 0 1000 1000" xml:space="preserve">
<metadata> Svg Vector Icons : http://www.onlinewebfonts.com/icon </metadata>
<g><g transform="translate(0.000000,492.000000) scale(0.100000,-0.100000)"><path d="M4457.1,4790.5c-1806.6-281.8-3131.6-1818.6-3133.6-3629.2c0-999.2,375.7-1910.5,1079.2-2614c475.6-475.6,1043.2-797.4,1708.7-967.2c107.9-28,213.8-52,233.8-52c34,0,36-30,36-439.7v-439.7l-1880.6-4l-1880.6-6l-58-65.9c-95.9-105.9-67.9-243.8,62-307.8c65.9-34,201.8-36,2018.5-34c1454.9,0,1966.5,6,2018.4,24c129.9,44,139.9,91.9,139.9,689.5v523.6h199.8h199.8v-519.6c0-591.5,8-639.5,127.9-689.5c60-26,351.7-30,2004.5-30c1229.1,0,1960.5,8,2006.4,20c93.9,26,137.9,77.9,151.9,175.9c8,65.9,2,87.9-50,145.9l-60,67.9l-1880.6,6l-1880.5,4v439.7c0,409.7,2,439.7,36,439.7c60,0,423.7,97.9,603.5,163.9C7396.8-1894.4,8272.2-927.1,8565.9,242c323.7,1283-64,2646-1009.2,3551.3c-571.6,547.6-1251.1,881.3-2032.5,999.2C5272.5,4830.5,4700.9,4828.5,4457.1,4790.5z M5322.4,4400.8c275.8-28,463.6-67.9,713.4-149.9C7207,3859.2,8048.3,2854,8240.2,1614.9c34-221.8,30-757.4-10-985.2c-215.8-1285-1161.1-2328.2-2398.1-2644c-535.6-137.9-1127.1-137.9-1662.7,0c-613.5,155.9-1195.1,515.6-1620.8,1001.2C2136.9-545.4,1875.1,10.2,1771.2,629.7c-40,227.8-44,763.4-10,985.2C1953,2854,2794.4,3859.2,3965.5,4250.9C4411.1,4398.8,4856.8,4448.8,5322.4,4400.8z"/><path d="M6267.7,2618.2c-405.7-299.8-829.4-613.5-941.3-699.5c-203.8-153.9-205.8-155.9-341.7-161.9c-633.5-32-819.4-857.3-257.8-1155.1c69.9-38,115.9-46,273.8-46c157.9,0,203.8,8,273.8,46c199.8,105.9,327.8,311.8,331.7,529.6l2,123.9l541.6,729.4c299.8,401.7,609.5,819.4,689.5,929.3c79.9,109.9,153.9,211.8,165.9,225.8c10,12,14,24,10,24C7009.1,3163.7,6673.4,2917.9,6267.7,2618.2z"/><path d="M574.1-4636.2c-34-28-56-72-64-125.9c-10-72-2-91.9,50-149.9l60-68h4380.6h4380.6l60,68c52,57.9,60,77.9,50,149.9c-8,53.9-30,97.9-64,125.9l-51.9,46H5000.7H626L574.1-4636.2z"/></g></g>
</svg>