<?xml version="1.0" encoding="UTF-8" standalone="no"?>
<!-- Generator: Adobe Illustrator 18.0.0, SVG Export Plug-In . SVG Version: 6.00 Build 0)  -->

<svg
   xmlns:dc="http://purl.org/dc/elements/1.1/"
   xmlns:cc="http://creativecommons.org/ns#"
   xmlns:rdf="http://www.w3.org/1999/02/22-rdf-syntax-ns#"
   xmlns:svg="http://www.w3.org/2000/svg"
   xmlns="http://www.w3.org/2000/svg"
   xmlns:sodipodi="http://sodipodi.sourceforge.net/DTD/sodipodi-0.dtd"
   xmlns:inkscape="http://www.inkscape.org/namespaces/inkscape"
   version="1.1"
   id="Layer_1"
   x="0px"
   y="0px"
   viewBox="0 0 64 64"
   enable-background="new 0 0 64 64"
   xml:space="preserve"
   sodipodi:docname="calendar_yellow.svg"
   inkscape:version="0.92.4 (5da689c313, 2019-01-14)"><metadata
   id="metadata4605"><rdf:RDF><cc:Work
       rdf:about=""><dc:format>image/svg+xml</dc:format><dc:type
         rdf:resource="http://purl.org/dc/dcmitype/StillImage" /></cc:Work></rdf:RDF></metadata><defs
   id="defs4603" /><sodipodi:namedview
   pagecolor="#ffffff"
   bordercolor="#666666"
   borderopacity="1"
   objecttolerance="10"
   gridtolerance="10"
   guidetolerance="10"
   inkscape:pageopacity="0"
   inkscape:pageshadow="2"
   inkscape:window-width="1920"
   inkscape:window-height="1017"
   id="namedview4601"
   showgrid="false"
   inkscape:zoom="13.25"
   inkscape:cx="-12.603774"
   inkscape:cy="32"
   inkscape:window-x="-8"
   inkscape:window-y="-8"
   inkscape:window-maximized="1"
   inkscape:current-layer="Layer_1" />
<g
   id="g4598">
	<g
   id="g4524">
		<g
   id="g4522">
			<g
   id="g4520">
				<path
   d="M60,64H4c-2.2,0-4-1.8-4-4V9c0-2.2,1.8-4,4-4h56c2.2,0,4,1.8,4,4v51C64,62.2,62.2,64,60,64z M4,9v51h56l0-51H4z"
   id="path4518" />
			</g>
		</g>
	</g>
	<g
   id="g4532">
		<g
   id="g4530">
			<g
   id="g4528">
				<rect
   x="16"
   width="4"
   height="14"
   id="rect4526" />
			</g>
		</g>
	</g>
	<g
   id="g4540">
		<g
   id="g4538">
			<g
   id="g4536">
				<rect
   x="44"
   width="4"
   height="14"
   id="rect4534" />
			</g>
		</g>
	</g>
	<g
   id="g4548">
		<g
   id="g4546">
			<g
   id="g4544">
				<rect
   x="2"
   y="20"
   width="60"
   height="4"
   id="rect4542" />
			</g>
		</g>
	</g>
	<g
   id="g4556">
		<g
   id="g4554">
			<g
   id="g4552">
				
			</g>
		</g>
	</g>
	<g
   id="g4564">
		<g
   id="g4562">
			<g
   id="g4560">
				
			</g>
		</g>
	</g>
	<g
   id="g4572">
		<g
   id="g4570">
			<g
   id="g4568">
				
			</g>
		</g>
	</g>
	<g
   id="g4580">
		<g
   id="g4578">
			<g
   id="g4576">
				
			</g>
		</g>
	</g>
	<g
   id="g4588">
		<g
   id="g4586">
			<g
   id="g4584">
				
			</g>
		</g>
	</g>
	<g
   id="g4596">
		<g
   id="g4594">
			<g
   id="g4592">
				
			</g>
		</g>
	</g>
</g>
<path
   style="opacity:1;fill:#800000;fill-opacity:1;stroke:#000000;stroke-width:0.03788679;stroke-miterlimit:4;stroke-dasharray:none;stroke-opacity:1"
   d="M 4.0150943,14.498113 V 9.0264151 h 5.9622642 5.9622645 v 2.4905659 2.490566 h 2.037735 2.037736 V 11.516981 9.0264151 h 11.962264 11.962265 v 2.4905659 2.490566 h 2.037735 2.037736 V 11.516981 9.0264151 h 5.962264 5.962265 v 5.4716979 5.471698 H 31.977358 4.0150943 Z"
   id="path846"
   inkscape:connector-curvature="0" /><path
   style="opacity:1;fill:#ffd42a;fill-opacity:1;stroke:#000000;stroke-width:0.03788679;stroke-miterlimit:4;stroke-dasharray:none;stroke-opacity:1"
   d="M 4.0150943,42.007547 V 24.045283 H 31.977358 59.939623 V 42.007547 59.969811 H 31.977358 4.0150943 Z"
   id="path848"
   inkscape:connector-curvature="0" /><path
   style="opacity:1;fill:#ffd42a;fill-opacity:1;stroke:#000000;stroke-width:0.03788679;stroke-miterlimit:4;stroke-dasharray:none;stroke-opacity:1"
   d="M 4.090566,14.498113 V 9.1018868 h 5.8857612 5.8857608 l 0.0199,2.4716982 0.0199,2.471698 h 2.075471 2.075472 l 0.0199,-2.471698 0.0199,-2.4716982 H 31.97736 43.86209 l 0.0199,2.4716982 0.0199,2.471698 h 2.075471 2.075472 l 0.0199,-2.471698 0.0199,-2.4716982 h 5.88576 5.885762 V 14.498113 19.89434 H 31.977358 4.090566 Z"
   id="path850"
   inkscape:connector-curvature="0" /><path
   style="opacity:1;fill:#ffffff;fill-opacity:1;stroke:#000000;stroke-width:0.03788679;stroke-miterlimit:4;stroke-dasharray:none;stroke-opacity:1"
   d="M 4.1660373,14.498113 V 9.1773585 H 9.9653988 15.76476 l 0.04969,1.4838345 c 0.02733,0.816109 0.04969,1.919883 0.04969,2.45283 v 0.968996 h 2.113208 2.113208 v -0.968996 c 0,-0.532947 0.02236,-1.636721 0.04969,-2.45283 l 0.04969,-1.4838345 H 31.977358 43.76476 l 0.04969,1.4838345 c 0.02733,0.816109 0.04969,1.919883 0.04969,2.45283 v 0.968996 h 2.113208 2.113208 v -0.968996 c 0,-0.532947 0.02236,-1.636721 0.04969,-2.45283 l 0.04969,-1.4838345 h 5.799361 5.799362 v 5.3207545 5.320755 H 31.977358 4.1660373 Z"
   id="path2019"
   inkscape:connector-curvature="0" /><path
   style="opacity:1;fill:#d40000;fill-opacity:1;stroke:#000000;stroke-width:0.03788679;stroke-miterlimit:4;stroke-dasharray:none;stroke-opacity:1"
   d="M 4.241509,14.498113 V 9.2528302 h 5.7243178 5.7243172 l 0.04892,0.8490568 c 0.02691,0.466981 0.04908,1.570755 0.04927,2.45283 l 3.44e-4,1.603774 h 2.188679 2.188679 l 3.78e-4,-1.603774 c 1.51e-4,-0.882075 0.02236,-1.985849 0.04927,-2.45283 l 0.04889,-0.8490568 H 31.97736 43.690146 l 0.04892,0.8490568 c 0.02691,0.466981 0.04908,1.570755 0.04927,2.45283 l 3.44e-4,1.603774 h 2.188679 2.188679 l 3.78e-4,-1.603774 c 2.26e-4,-0.882075 0.02236,-1.985849 0.04927,-2.45283 l 0.04889,-0.8490568 h 5.724317 5.724318 v 5.2452828 5.245283 H 31.977358 4.241509 Z"
   id="path1435"
   inkscape:connector-curvature="0" /></svg>