<?xml version="1.0" encoding="UTF-8" standalone="no"?>
<!-- Generator: Adobe Illustrator 16.0.0, SVG Export Plug-In . SVG Version: 6.00 Build 0)  -->

<svg
   xmlns:dc="http://purl.org/dc/elements/1.1/"
   xmlns:cc="http://creativecommons.org/ns#"
   xmlns:rdf="http://www.w3.org/1999/02/22-rdf-syntax-ns#"
   xmlns:svg="http://www.w3.org/2000/svg"
   xmlns="http://www.w3.org/2000/svg"
   xmlns:sodipodi="http://sodipodi.sourceforge.net/DTD/sodipodi-0.dtd"
   xmlns:inkscape="http://www.inkscape.org/namespaces/inkscape"
   version="1.1"
   id="Capa_1"
   x="0px"
   y="0px"
   width="485.213px"
   height="485.212px"
   viewBox="0 0 485.213 485.212"
   style="enable-background:new 0 0 485.213 485.212;"
   xml:space="preserve"
   sodipodi:docname="clock.svg_yellow.svg"
   inkscape:version="0.92.4 (5da689c313, 2019-01-14)"><metadata
   id="metadata854"><rdf:RDF><cc:Work
       rdf:about=""><dc:format>image/svg+xml</dc:format><dc:type
         rdf:resource="http://purl.org/dc/dcmitype/StillImage" /><dc:title></dc:title></cc:Work></rdf:RDF></metadata><defs
   id="defs852" /><sodipodi:namedview
   pagecolor="#ffffff"
   bordercolor="#666666"
   borderopacity="1"
   objecttolerance="10"
   gridtolerance="10"
   guidetolerance="10"
   inkscape:pageopacity="0"
   inkscape:pageshadow="2"
   inkscape:window-width="1920"
   inkscape:window-height="1017"
   id="namedview850"
   showgrid="false"
   inkscape:zoom="1.7476896"
   inkscape:cx="242.60651"
   inkscape:cy="242.606"
   inkscape:window-x="1272"
   inkscape:window-y="-8"
   inkscape:window-maximized="1"
   inkscape:current-layer="Capa_1" />
<g
   id="g817"
   style="fill:#000000">
	<path
   d="M242.607,0C108.629,0,0.001,108.628,0.001,242.606c0,133.976,108.628,242.606,242.606,242.606   c133.978,0,242.604-108.631,242.604-242.606C485.212,108.628,376.585,0,242.607,0z M257.771,454.116v-29.557h-30.327v29.557   c-104.925-7.458-188.883-91.419-196.346-196.344h29.554v-30.327H31.098c7.463-104.928,91.421-188.886,196.346-196.349v29.554   h30.327V31.097c104.926,7.462,188.882,91.421,196.344,196.349h-29.552v30.327h29.552   C446.652,362.697,362.696,446.658,257.771,454.116z M354.226,178.163c2.072,3.615,0.83,8.266-2.782,10.368l-80.092,46.227   c0.691,2.577,1.582,5.066,1.582,7.848c0,16.762-13.581,30.324-30.326,30.324c-16.75,0-30.327-13.562-30.327-30.324l-82.299-47.503   c-7.257-4.203-9.743-13.474-5.554-20.729c4.174-7.285,13.459-9.771,20.715-5.565l82.775,47.798   c4.411-2.487,9.239-4.324,14.69-4.324c8.471,0,16.092,3.494,21.604,9.122l79.648-46.024   C347.416,173.277,352.064,174.521,354.226,178.163z"
   id="path815"
   style="fill:#000000" />
</g>
<g
   id="g819">
</g>
<g
   id="g821">
</g>
<g
   id="g823">
</g>
<g
   id="g825">
</g>
<g
   id="g827">
</g>
<g
   id="g829">
</g>
<g
   id="g831">
</g>
<g
   id="g833">
</g>
<g
   id="g835">
</g>
<g
   id="g837">
</g>
<g
   id="g839">
</g>
<g
   id="g841">
</g>
<g
   id="g843">
</g>
<g
   id="g845">
</g>
<g
   id="g847">
</g>
<path
   style="opacity:1;fill:#ffcc00;fill-opacity:1;stroke:#000000;stroke-width:0.28723633;stroke-miterlimit:4;stroke-dasharray:none;stroke-opacity:1"
   d="M 222.40841,453.38915 C 188.49653,450.35201 154.13827,438.01954 124.53414,418.25839 103.31224,404.09248 81.72106,382.53709 67.286167,361.1053 50.741132,336.54054 40.009914,310.56791 34.494597,281.7403 33.218405,275.06986 31.585059,262.69852 31.585059,259.70278 V 257.8261 H 46.17575 60.766441 V 242.37713 226.92816 H 46.17575 31.585059 v -1.59059 c 0,-2.99255 1.753265,-15.75566 3.193803,-23.24967 5.283899,-27.48807 17.190461,-55.95732 32.968453,-78.8294 10.409766,-15.0902 29.09053,-35.257327 42.513035,-45.895659 33.21766,-26.32745 70.8489,-41.433775 114.00766,-45.766136 l 3.00397,-0.301544 v 14.849825 14.849825 h 15.44896 15.44897 V 46.111266 31.227721 l 2.14569,0.28994 c 1.18013,0.159468 4.72052,0.571094 7.86753,0.914727 37.65084,4.111215 75.66331,20.202786 107.28449,45.416046 9.35679,7.460666 24.52303,22.671006 32.19577,32.289386 21.68915,27.18903 36.17378,58.31333 42.70905,91.77241 1.33009,6.80972 3.47939,21.97404 3.4837,24.57914 3.7e-4,0.23071 -6.62949,0.48819 -14.73305,0.57218 l -14.73374,0.1527 -0.15239,15.30593 -0.15239,15.30592 h 14.88613 c 11.52781,0 14.88597,0.16135 14.88544,0.71523 -0.003,3.22267 -2.12947,17.9775 -3.73761,25.93558 -5.57176,27.57253 -16.39734,53.30764 -32.35441,76.91448 -28.92254,42.78794 -73.97143,74.29917 -123.83271,86.61969 -11.9147,2.94408 -27.48987,5.50193 -33.50207,5.50193 h -2.25943 v -14.59069 -14.59069 h -15.43947 -15.43946 l -0.15255,14.73374 -0.15255,14.73374 z m 25.78624,-180.73864 c 5.97682,-1.09947 11.30042,-3.99825 15.9035,-8.65971 6.43633,-6.51798 9.37576,-13.96173 8.75523,-22.17154 -0.179,-2.36814 -0.47107,-4.9494 -0.64904,-5.73615 -0.30902,-1.36603 1.43846,-2.44415 38.79399,-23.93408 21.51467,-12.37699 39.86518,-22.99325 40.7789,-23.59168 4.94834,-3.24084 4.71756,-10.79578 -0.41078,-13.44775 -4.10182,-2.12113 -3.98222,-2.17898 -47.13208,22.79686 l -40.04923,23.18116 -2.13241,-1.92651 c -7.37636,-6.6641 -20.171,-8.90349 -29.10845,-5.09472 -2.01831,0.86012 -4.18463,1.59256 -4.81403,1.62766 -0.6294,0.0351 -19.96477,-10.81103 -42.96749,-24.10248 -44.82507,-25.90086 -44.92089,-25.94787 -50.38927,-24.72238 -7.82319,1.75321 -12.41006,7.33937 -12.44666,15.15827 -0.0161,3.45361 0.22968,4.46088 1.74219,7.13806 0.96855,1.71437 2.63504,3.80547 3.7033,4.64689 1.06826,0.84143 20.35231,12.13851 42.85344,25.10463 22.50114,12.96612 40.96967,23.62893 41.04118,23.69513 0.0715,0.0662 0.36864,1.77841 0.66028,3.80491 2.53676,17.62687 18.63752,29.40296 35.86743,26.23343 z"
   id="path856"
   inkscape:connector-curvature="0" /></svg>