<?xml version="1.0" encoding="UTF-8" standalone="no"?>
<!-- Generator: Adobe Illustrator 16.0.4, SVG Export Plug-In . SVG Version: 6.00 Build 0)  -->

<svg
   xmlns:dc="http://purl.org/dc/elements/1.1/"
   xmlns:cc="http://creativecommons.org/ns#"
   xmlns:rdf="http://www.w3.org/1999/02/22-rdf-syntax-ns#"
   xmlns:svg="http://www.w3.org/2000/svg"
   xmlns="http://www.w3.org/2000/svg"
   xmlns:sodipodi="http://sodipodi.sourceforge.net/DTD/sodipodi-0.dtd"
   xmlns:inkscape="http://www.inkscape.org/namespaces/inkscape"
   version="1.1"
   id="pfade"
   x="0px"
   y="0px"
   width="80px"
   height="80px"
   viewBox="0 0 80 80"
   enable-background="new 0 0 80 80"
   xml:space="preserve"
   sodipodi:docname="warning_rot_pressed.svg"
   inkscape:version="0.92.4 (5da689c313, 2019-01-14)"><metadata
   id="metadata830"><rdf:RDF><cc:Work
       rdf:about=""><dc:format>image/svg+xml</dc:format><dc:type
         rdf:resource="http://purl.org/dc/dcmitype/StillImage" /><dc:title></dc:title></cc:Work></rdf:RDF></metadata><defs
   id="defs828" /><sodipodi:namedview
   pagecolor="#ffffff"
   bordercolor="#666666"
   borderopacity="1"
   objecttolerance="10"
   gridtolerance="10"
   guidetolerance="10"
   inkscape:pageopacity="0"
   inkscape:pageshadow="2"
   inkscape:window-width="1920"
   inkscape:window-height="1017"
   id="namedview826"
   showgrid="false"
   inkscape:zoom="10.6"
   inkscape:cx="40"
   inkscape:cy="40"
   inkscape:window-x="1272"
   inkscape:window-y="-8"
   inkscape:window-maximized="1"
   inkscape:current-layer="pfade" />
<path
   fill="none"
   stroke="#1A171B"
   stroke-width="2"
   stroke-linecap="round"
   stroke-linejoin="round"
   stroke-miterlimit="10"
   d="  M44.532,59.876"
   id="path815" />
<g
   id="g823"
   transform="matrix(1.5221323,0,0,1.5221323,-19.596046,-21.046827)">
	
		<polygon
   stroke-miterlimit="10"
   points="64.432,61.593 13.874,61.593 39.243,18.619 "
   id="polygon817"
   style="fill:none;stroke:#e30613;stroke-width:2;stroke-linecap:round;stroke-linejoin:round;stroke-miterlimit:10" />
	<g
   id="g821">
		<path
   d="m 39.153,54.644 c -1.387,0 -2.455,-1.126 -2.455,-2.424 0,-1.388 1.068,-2.458 2.455,-2.458 1.357,0 2.427,1.098 2.427,2.458 0,1.298 -1.098,2.424 -2.427,2.424 z m 1.416,-8.574 c -0.059,0.549 -0.174,0.522 -0.606,0.522 h -1.646 c -0.434,0 -0.55,0.026 -0.606,-0.522 L 37.073,34.8 c -0.028,-0.491 -0.028,-0.533 -0.028,-0.703 0,-0.378 0.287,-0.505 0.519,-0.505 h 3.091 c 0.231,0 0.577,0.14 0.577,0.516 0,0.173 0,0.129 -0.028,0.621 z"
   id="path819"
   inkscape:connector-curvature="0"
   style="fill:#e30613" />
	</g>
</g>
</svg>